<svg xmlns="http://www.w3.org/2000/svg" width="20" height="20">
<path fill="#444" d="M17.3 0H2.7C1.2 0 0 1.2 0 2.7v14.6C0 18.8 1.2 20 2.7 20h14.6c1.5 0 2.7-1.2 2.7-2.7V2.7C20 1.2 18.8 0 17.3 0z"></path><path d="M5.4 7.7v.2c0 .4-.1.7-.2 1-.1.3-.3.6-.4.8l-.6.6c-.2.2-.4.4-.5.6-.1.2-.2.4-.2.6h1.9v1.3H1.8V12c0-.3.1-.7.2-1 .1-.3.3-.6.5-.9s.5-.5.7-.7c.2-.3.4-.5.5-.8.2-.3.3-.5.3-.8v-.2c0-.1 0-.2-.1-.3h-.2c-.1 0-.2 0-.2.2-.1 0-.1.2-.1.3v.4H1.9v-.3c0-.6.2-1 .5-1.4s.8-.6 1.3-.6.9.2 1.3.5c.3.4.4.8.4 1.3zm4.1-1.6c.5 0 1 .2 1.4.5.4.3.5.8.5 1.3v1c0 .5-.2.9-.5 1.3-.4.3-.8.5-1.3.5h-.5v2.2H7.7V6.1h1.8zm.5 2.8V7.8c0-.1 0-.2-.1-.3-.1-.1-.2-.1-.3-.1h-.5v1.9h.5c.1 0 .2 0 .2-.1s.2-.2.2-.3zm1.9 3.9V6.1h1.5v6.7h-1.5zm4.8-6.7H18v6.7h-1.2l-1.4-3.7v3.7h-1.2V6.1h1.2l1.4 3.7V6.1z" fill="#FFF"></path>
</svg>