<svg xmlns="http://www.w3.org/2000/svg" width="20" height="20">
<path d="M6.057 19.991c-.504 0-.952-.06-1.344-.18a3.165 3.165 0 0 1-.996-.516 2.207 2.207 0 0 1-.624-.768 2.382 2.382 0 0 1-.204-.984c0-.544.156-.98.468-1.308a2.52 2.52 0 0 1 1.2-.708v-.096a2.373 2.373 0 0 1-1.02-.696c-.264-.312-.396-.712-.396-1.2 0-.32.064-.616.192-.888a1.89 1.89 0 0 1 .564-.696c.248-.2.552-.352.912-.456.36-.112.776-.168 1.248-.168.464 0 .876.056 1.236.168.368.104.676.256.924.456.248.192.436.424.564.696.128.272.192.568.192.888 0 .488-.132.888-.396 1.2a2.373 2.373 0 0 1-1.02.696v.096a2.52 2.52 0 0 1 1.2.708c.312.328.468.764.468 1.308 0 .352-.072.68-.216.984-.136.296-.34.552-.612.768a3.165 3.165 0 0 1-.996.516c-.392.12-.84.18-1.344.18Zm0-1.38c.416 0 .732-.096.948-.288.224-.192.336-.452.336-.78v-.24c0-.336-.108-.596-.324-.78-.216-.192-.536-.288-.96-.288-.424 0-.744.096-.96.288-.216.184-.324.444-.324.78v.24c0 .328.108.588.324.78.224.192.544.288.96.288Zm0-3.696c.4 0 .704-.092.912-.276.208-.184.312-.432.312-.744v-.18c0-.312-.108-.556-.324-.732-.208-.184-.508-.276-.9-.276s-.696.092-.912.276c-.208.176-.312.42-.312.732v.18c0 .312.104.56.312.744.208.184.512.276.912.276Zm4.375-3.948h1.776v3.816h.072c.072-.176.16-.34.264-.492a1.75 1.75 0 0 1 .888-.672c.2-.072.424-.108.672-.108.296 0 .568.052.816.156.248.096.46.244.636.444s.312.444.408.732c.104.288.156.62.156.996v4.008h-1.776V16.08c0-.8-.348-1.2-1.044-1.2-.136 0-.272.02-.408.06a.938.938 0 0 0-.348.168.834.834 0 0 0-.252.276.876.876 0 0 0-.084.396v4.068h-1.776v-8.88Z" fill="#444"></path><path fill-rule="evenodd" clip-rule="evenodd" d="M18.3 2v.3H20v6h-1.7c0 1.1-.6 2.3-1.7 2.3H2.1C.9 10.6 0 9.3 0 8.2V2C0 .9.9 0 2.1 0h14.5c1.1 0 1.7.8 1.7 2ZM3.9 9.3h10.7c1.5 0 2.7-1.2 2.7-2.8V3.9c0-1.5-1.2-2.7-2.7-2.7H3.9c-1.5 0-2.7 1.2-2.7 2.7v2.7c0 1.5 1.2 2.7 2.7 2.7Z" fill="#444"></path><path d="M11.6 2.1H4c-1 0-1.8.8-1.8 1.8v2.8c0 1 .8 1.8 1.8 1.8h10.3l-2.7-6.4Z" fill="#444"></path>
</svg>