<svg xmlns="http://www.w3.org/2000/svg" width="20" height="20">
<path fill="#444" d="M17.3 20H2.7C1.2 20 0 18.8 0 17.3V2.7C0 1.2 1.2 0 2.7 0h14.6C18.8 0 20 1.2 20 2.7v14.6c0 1.5-1.2 2.7-2.7 2.7z"></path><path d="m5.7 9.4-.4-1.5H4.1l-.3 1.5H2.6L4 2.3h1.5l1.4 7.1H5.7zm-.6-2.7-.4-2.8-.4 2.8h.8zm7.5-4.4v7.1h-1V4.2l-1.1 5.2h-.9L8.5 4.2v5.2h-1V2.3h1.4L10.1 7l1.1-4.7h1.4zm2.8 0c.6 0 1 .2 1.4.5s.5.8.5 1.3v1.1c0 .5-.2 1-.5 1.3-.4.3-.9.5-1.4.5h-.6v2.4h-1.2V2.3h1.8zm.7 1.8c0-.4-.2-.6-.7-.6h-.7v2.4h.7c.4 0 .7-.2.7-.6V4.1zM5.4 10.6c.6 0 1 .2 1.4.5.4.3.6.8.6 1.3v3.4c0 .5-.2 1-.5 1.3-.4.3-.8.5-1.4.5H3.6v-7.1h1.8zm.8 1.9c0-.4-.3-.7-.6-.7h-.8v4.8h.7c.4 0 .7-.2.7-.7v-3.4zm4.7 5.2-.3-1.5H9.4L9 17.7H7.8l1.4-7.1h1.5l1.4 7.1h-1.2zm-.5-2.6-.4-2.9-.4 2.8h.8zm4.2 2.8c-.6 0-1.1-.2-1.4-.5-.4-.3-.6-.8-.6-1.3v-3.6c0-.5.2-1 .6-1.3.4-.3.8-.5 1.4-.5s1.1.2 1.4.5c.4.4.6.8.6 1.3v.9h-1.2v-1c0-.4-.3-.7-.7-.7-.5 0-.7.3-.7.7V16c0 .4.3.7.7.7.5 0 .8-.3.8-.7v-1h1.2v1c0 .5-.2 1-.6 1.3-.5.4-1 .6-1.5.6z" fill="#FFF"></path>
</svg>