<svg xmlns="http://www.w3.org/2000/svg" width="20" height="20">
<path d="M6.7 8.5h-.4V12h.4V8.5Zm1.7.9H8v2.5h.4V9.4Zm1.8.3h-.4V12h.4V9.7Zm1.8-.3h-.4V12h.4V9.4Zm-10.3.3h-.4V12h.4V9.7Zm16.9 0h-.4V12h.4V9.7ZM3.1 8.6h-.4V12h.4V8.6Zm14.3.2H17V12h.4V8.8Zm-3.6-.3h-.4V12h.4V8.5Z" fill="#444"></path><path d="M19.8 11.1H.2v.9h19.6v-.9Z" fill="#444"></path><path d="M19.9 12.2H.1v-2h.1C3.8 9 4.3 5.6 4.3 5.6l.1-.8.2.8c.5 1.7 1.6 2.9 3.1 3.5 1.3.5 2.3.4 2.3.4s1 0 2.2-.4c1.5-.6 2.6-1.8 3.1-3.5l.2-.8.1.8s.6 3.5 4.2 4.5h.1v2.1Zm-.4-.4v-1.4c-2.7-.9-3.8-3.1-4.2-4.2-1.5 3.7-5.2 3.7-5.5 3.7-.2 0-3.9 0-5.5-3.7C4 7.3 3 9.5.2 10.4v1.4h19.3Z" fill="#444"></path><path d="M5.3 15.3H3.9V5.1c0-.2.2-.4.4-.4h.5c.2 0 .4.2.4.4l.1 10.2Zm10.7 0h-1.3V5.1c0-.2.2-.4.4-.4h.5c.2 0 .4.2.4.4v10.2Z" fill="#444"></path>
</svg>