<svg xmlns="http://www.w3.org/2000/svg" width="20" height="20">
<path d="M13.6 6.6v2.6c0 2-1.7 3.6-3.7 3.5-1.9 0-3.4-1.6-3.5-3.5V3.8C6.4 2 7.9.5 9.7.4c1.9-.1 3.6 1.2 3.8 3 .1.7 0 1.3.1 2v1.2z" fill="#444"></path><path d="M10.7 18.5h2c.2 0 .4 0 .6.1.2 0 .3.2.3.4s-.1.3-.3.4c-.2.1-.4.1-.6.1H7.2c-.2 0-.4 0-.6-.1-.1-.1-.2-.2-.3-.4 0-.2.1-.3.3-.4.2-.1.4-.1.6-.1h1.9v-3.3c-.3-.1-.6-.1-.9-.2-2.5-.7-4.3-3-4.3-5.6v-1c0-.4.3-.8.7-.8.4 0 .8.3.8.7v.9c0 2.2 1.7 4.1 3.9 4.3 2.2.2 4.3-1.1 4.8-3.2.1-.5.1-1.1.1-1.7v-.5c.1-.4.4-.6.8-.6s.7.3.7.7c.4 3.1-1.6 6-4.7 6.7-.2 0-.4.1-.5.1.2 1.3.2 2.4.2 3.5z" fill="#444"></path>
</svg>