<svg xmlns="http://www.w3.org/2000/svg" width="20" height="20">
<path fill="#444" d="M10 1.2c-4.9 0-8.8 4-8.8 8.8 0 4.9 4 8.8 8.8 8.8s8.8-4 8.8-8.8c0-4.9-3.9-8.8-8.8-8.8zm5.3 2.4c.2 0 .4.2.4.4s-.2.4-.4.4-.4-.2-.4-.4.1-.4.4-.4zm.2 2.5c0 .3-.2.5-.5.5H5c-.3 0-.5-.2-.5-.5s.2-.5.5-.5h10c.3 0 .5.2.5.5zM6.4 3.5h7c.3 0 .5.2.5.5s-.2.5-.5.5h-7c-.2 0-.5-.2-.5-.5s.3-.5.5-.5zm-1.6.1c.2 0 .4.1.4.4 0 .2-.2.4-.4.4s-.4-.2-.4-.4c0-.3.2-.4.4-.4zm-1 4h12.5c.3 0 .5.2.5.5s-.2.5-.5.5H3.8c-.3 0-.5-.2-.5-.5s.2-.5.5-.5zm1 9c-.2 0-.4-.2-.4-.4s.2-.4.4-.4.4.2.4.4-.2.4-.4.4zm-.3-2.4c0-.3.2-.5.5-.5h10c.3 0 .5.2.5.5s-.2.5-.5.5H5c-.3 0-.5-.2-.5-.5zm9 2.6h-7c-.3 0-.5-.2-.5-.5s.2-.5.5-.5h7c.3 0 .5.2.5.5s-.2.5-.5.5zm1.8-.3c-.2 0-.4-.2-.4-.4s.2-.4.4-.4.4.2.4.4c0 .3-.2.4-.4.4zm.9-3.8H3.8c-.3 0-.5-.2-.5-.5s.2-.5.5-.5h12.5c.3 0 .5.2.5.5s-.3.5-.6.5zm.9-2H2.9c-.3 0-.5-.2-.5-.5s.2-.5.5-.5h14.2c.3 0 .5.2.5.5s-.2.5-.5.5z"></path>
</svg>