<svg xmlns="http://www.w3.org/2000/svg" width="20" height="20">
<path d="M19.345 11.104c0 .215 0 .429-.068.634-.078.448-.146.896-.243 1.334a6.819 6.819 0 0 1-.614 1.676 10.28 10.28 0 0 1-.711 1.217.66.66 0 0 1-.974.137.682.682 0 0 1-.234-.848c0-.068 0-.097-.068-.146a9.621 9.621 0 0 1-.867-.506.536.536 0 0 1-.195-.682.507.507 0 0 1 .584-.322c.167.04.326.109.468.205.205.107.4.234.594.35a.117.117 0 0 0 .098 0c.155-.399.321-.798.448-1.208.095-.352.17-.71.224-1.071 0-.195.049-.39.068-.585h-.974a.7.7 0 0 1-.39-.097.574.574 0 0 1-.058-.886.643.643 0 0 1 .438-.146h.974a7.967 7.967 0 0 0-3.41-6.001c-.126.214-.233.419-.35.623a3.01 3.01 0 0 1-.195.351.555.555 0 0 1-.682.146.536.536 0 0 1-.272-.682c.155-.312.33-.623.516-.974.049-.078 0-.107-.049-.146a7.014 7.014 0 0 0-1.753-.487c-.332-.059-.663-.098-.974-.146h-.078v.974a.623.623 0 0 1-.263.545.545.545 0 0 1-.848-.34v-1.19h-.292a7.9 7.9 0 0 0-2.26.594l-.283.127c-.078 0-.058.058 0 .117.186.302.37.604.526.915a.536.536 0 0 1-.224.673.526.526 0 0 1-.789-.127c-.204-.292-.37-.614-.555-.916V4.13a7.9 7.9 0 0 0-2.182 2.162l.848.468a.594.594 0 0 1 .217.916.536.536 0 0 1-.607.155c-.244-.117-.477-.253-.721-.39l-.292-.175a7.579 7.579 0 0 0-.78 2.923h1.082a.574.574 0 0 1 .48.816.555.555 0 0 1-.256.255.905.905 0 0 1-.331.059h-.975a7.58 7.58 0 0 0 .77 2.922l.867-.506a.574.574 0 1 1 .536.974l-.799.448a.137.137 0 0 0 0 .107.72.72 0 0 1-.75 1.035.711.711 0 0 1-.38-.188 7.785 7.785 0 0 1-.497-.76c-.204-.389-.4-.798-.565-1.207a7.997 7.997 0 0 1-.448-1.588 9.07 9.07 0 0 1-.166-2.114c0-.458.098-.925.166-1.383a7.57 7.57 0 0 1 .4-1.608 9.685 9.685 0 0 1 .847-1.714 9.342 9.342 0 0 1 2.338-2.504 8.894 8.894 0 0 1 2.23-1.227 8.991 8.991 0 0 1 1.803-.497 8.572 8.572 0 0 1 2.055-.117c.484.036.965.098 1.442.185a9.323 9.323 0 0 1 5.309 3.235 9.003 9.003 0 0 1 1.48 2.523c.19.486.337.988.439 1.5.078.39.117.798.166 1.188v.195l.01.886Z" fill="#444"></path><path d="M9.994 15.77h2.834a.711.711 0 0 1 .721.536c.01.084.01.17 0 .254v1.295a.702.702 0 0 1-.409.701 1.07 1.07 0 0 1-.4.069H7.15a.722.722 0 0 1-.741-.711v-1.5a.682.682 0 0 1 .662-.634h2.923v-.01Zm0-3.73a1.364 1.364 0 0 1-1.247-.974 1.306 1.306 0 0 1 .974-1.618 1.11 1.11 0 0 1 .565 0 .545.545 0 0 0 .428-.078l2.504-1.07 2.62-1.072h.117a.35.35 0 0 1 0 .108l-1.208.905-2.62 1.949c-.244.175-.477.37-.72.536a.526.526 0 0 0-.205.311 1.247 1.247 0 0 1-.838.877c-.098.039-.234.097-.37.127Z" fill="#444"></path>
</svg>