<svg xmlns="http://www.w3.org/2000/svg" width="20" height="20">
<path fill="#444" d="M17.9 14.6V13c0-4.3-3.3-7.8-7.5-8.1V3.3h.4V.1H8.9v3.2h.5v1.6c-4.3.2-7.7 3.8-7.7 8.1v.1c0 3.7 3.1 6.8 6.9 6.8 3.8 0 6.9-3.1 6.9-6.9v-.1c0-2.9-2.3-5.2-5-5.5V5.9c3.6.3 6.5 3.4 6.5 7.1v1.6h-.4v3.2h1.9v-3.2h-.6zM10.3 13v-2c.9.2 1.5 1.1 1.5 2 0 1.8-1.5 3.3-3.3 3.3-1.8 0-3.3-1.5-3.3-3.3v-.1c0-2.4 1.9-4.3 4.2-4.5v1.5c-1.5.2-2.6 1.5-2.6 3v.1c0 1 .8 1.7 1.8 1.7.9.1 1.7-.7 1.7-1.7zm-.9-2v2c0 .5-.4.8-.8.8s-.9-.3-.9-.8v-.1c0-.9.7-1.8 1.7-1.9zm5 2c0 3.3-2.6 5.9-5.9 5.9-3.2 0-5.9-2.6-5.9-5.9v-.1c0-3.8 3-6.8 6.7-7v1.5c-2.9.2-5.1 2.7-5.1 5.6v.1c0 2.4 2 4.3 4.3 4.3 2.4 0 4.3-1.9 4.3-4.3V13c0-1.5-1.1-2.7-2.5-3V8.4c2.3.3 4.1 2.2 4.1 4.6z"></path>
</svg>